# xmcd
#
# Track frame offsets:
#	150
#	18602
#	59117
#	94242
#	105633
#	129136
#	150913
#	183221
#	202684
#	243518
#	266643
#
# Disc length: 4251
#
# Revision: 1
# Processed by: cddbd v1.5.1PL0 Copyright (c) Steve Scherf et al.
# Submitted via: CDex 1.50
# Normalized: r0:TRMNUM
#
DISCID=8a10990b
DTITLE=Stevie Ray Vaughan - Live From Austin
DYEAR=1900
DGENRE=Blues
TTITLE0=Pride and Joy
TTITLE1=Texas Flood
TTITLE2=Vodoo Chile
TTITLE3=The House is Rockin'
TTITLE4=Tightrope
TTITLE5=Leave My Girl Alone
TTITLE6=Cold Shot
TTITLE7=Crossfire
TTITLE8=Riviera Paradise
TTITLE9=Tick Tock People
TTITLE10=Tin Pan Alley
EXTD=
EXTT0=
EXTT1=
EXTT2=
EXTT3=
EXTT4=
EXTT5=
EXTT6=
EXTT7=
EXTT8=
EXTT9=
EXTT10=
PLAYORDER=
